<?xml version="1.0" encoding="utf-8"?>
<!-- Generator: Adobe Illustrator 24.0.0, SVG Export Plug-In . SVG Version: 6.00 Build 0)  -->
<svg version="1.2" baseProfile="tiny"
	 id="Layer_1" xmlns:krita="http://krita.org/namespaces/svg/krita" xmlns:sodipodi="http://sodipodi.sourceforge.net/DTD/sodipodi-0.dtd"
	 xmlns="http://www.w3.org/2000/svg" xmlns:xlink="http://www.w3.org/1999/xlink" x="0px" y="0px" viewBox="0 0 684 684"
	 xml:space="preserve">
<path fill="#1A8CE2" stroke="#1A8CE2" stroke-miterlimit="10" d="M615.7,518.2c0,67.3-54.7,122-122,122H165.9
	c-67.3,0-122-54.7-122-122V190.4c0-67.3,54.7-122,122-122h186.7V25.1H165.9C74.8,25.1,0.6,99.3,0.6,190.4v327.8
	c0,91.2,74.2,165.3,165.3,165.3h327.8c91.2,0,165.3-74.2,165.3-165.3v-187h-43.3V518.2z"/>
<polygon fill="#1A8CE2" stroke="#1A8CE2" stroke-miterlimit="10" points="448.4,0.3 448.4,43.6 604.7,43.9 450.7,198.9 486.6,234.5 
	640.4,79.6 640.4,235.6 683.8,235.6 683.8,0.7 "/>
<path fill="#1A8CE2" stroke="#1A8CE2" stroke-width="28" stroke-linecap="round" stroke-linejoin="round" stroke-miterlimit="10" d="
	M133.9,310c-88.5-94.5,21.7-231,131.2-170.4c18.2,8.9,74.3,70.8,89.8,84.8c-14.5,0.3-29.4,2.8-43.6,7.3
	c-12-10.8-54.7-58.4-69.2-64.7c-59.7-31.1-121.5,24.8-104.8,84.2c7.4,30.3,47.9,58,77.7,90.9c2.8,2.9,48.8,48.4,60.5,53.1
	c37.6,19.6,77.9,2.6,95.7-30l20.6,20.7c-35.5,52.1-100.2,57.5-146.4,31.6C229.4,409.9,148.3,322.8,133.9,310z"/>
<path fill="#1A8CE2" stroke="#1A8CE2" stroke-width="28" stroke-linecap="round" stroke-linejoin="round" stroke-miterlimit="10" d="
	M525.7,398.6c88.5,94.5-21.7,231-131.2,170.4c-18.2-8.9-74.8-71.4-90.4-85.4c14.2,0.1,29.1-2,43.2-5.9
	c12.1,10.7,57.7,61.5,72.2,67.7c59.4,30.9,120.8-24.3,105.1-83.1c-7.6-31.6-44.5-55.3-75.4-89.4c-5.4-6.7-44.9-50.7-60.9-57
	c-34.1-17.1-77.4-3.8-96.4,28.6l-23.9-22.1c28.2-42.3,85.9-57.5,130.2-39.7C430.2,293.8,501.3,377.2,525.7,398.6z"/>
</svg>
