<?xml version="1.0" standalone="no"?>
<!DOCTYPE svg PUBLIC "-//W3C//DTD SVG 20010904//EN" "http://www.w3.org/TR/2001/REC-SVG-20010904/DTD/svg10.dtd">
<!-- Created using Krita: https://krita.org -->
<svg xmlns="http://www.w3.org/2000/svg" 
    xmlns:xlink="http://www.w3.org/1999/xlink"
    xmlns:krita="http://krita.org/namespaces/svg/krita"
    xmlns:sodipodi="http://sodipodi.sourceforge.net/DTD/sodipodi-0.dtd"
    width="684pt"
    height="684pt"
    viewBox="0 0 684 684">
<defs/>
<path id="shape0" transform="matrix(1.00272260903372 0 0 1.00272260903372 22.248478419601 46.76174303566)" fill="none" stroke="#f0c921" stroke-width="43.2" stroke-linecap="square" stroke-linejoin="bevel" d="M613.44 305.225C613.44 360.204 613.44 415.182 613.44 470.16C613.44 549.291 549.291 613.44 470.16 613.44L143.28 613.44C64.1486 613.44 1.87312e-14 549.291 2.84217e-14 470.16L0 143.28C9.69048e-15 64.1486 64.1486 2.35765e-14 143.28 2.84217e-14C198.133 2.36523e-14 252.986 1.88829e-14 307.839 1.41135e-14" sodipodi:nodetypes="cccccccc"/><path id="shape01" transform="matrix(1.00272260903372 0 0 1.00272260903372 448.407534992632 21.939878053396)" fill="none" stroke="#f0c921" stroke-width="43.2" stroke-linecap="butt" stroke-linejoin="miter" stroke-miterlimit="2.16000008583069" d="M0 0C71.0379 0.118594 142.076 0.237188 213.113 0.355782L213.113 213.113" sodipodi:nodetypes="ccc"/><path id="shape1" transform="matrix(1.00272260903372 0 0 1.00272260903372 468.63397762067 22.960886296778)" fill="none" stroke="#f0c921" stroke-width="50.4" stroke-linecap="butt" stroke-linejoin="bevel" d="M191.924 0L0 193.19" sodipodi:nodetypes="cc"/><path id="shape02" transform="matrix(1.70357547150197 0 0 1.70357547150197 97.739767325708 120.717272610673)" fill="none" stroke="#f0c921" stroke-width="27.36" stroke-linecap="square" stroke-linejoin="bevel" d="M100.152 101.955L101.504 100.637L102.882 99.3623L104.284 98.1297L105.71 96.9395L107.16 95.7918L108.631 94.6867L110.124 93.624L111.637 92.6039L113.17 91.6262L114.722 90.6911L116.292 89.7985L117.88 88.9483L119.483 88.1407L121.102 87.3756L122.513 86.7514L88.6457 52.884L88.0499 52.3069L87.4404 51.7528L86.8177 51.2219L86.1823 50.7141L85.5349 50.2293L84.8758 49.7676L84.2059 49.329L83.5255 48.9135L82.8353 48.521L82.1358 48.1517L81.4276 47.8054L80.7112 47.4823L79.9872 47.1822L79.2562 46.9051L78.5187 46.6512L77.7754 46.4204L77.0267 46.2126L76.2732 46.0279L75.5154 45.8663L74.7541 45.7278L73.9896 45.6124L73.2226 45.5201L72.4536 45.4508L71.6833 45.4047L70.9121 45.3816L70.1406 45.3816L69.3693 45.4047L68.599 45.4508L67.83 45.5201L67.063 45.6124L66.2986 45.7278L65.5372 45.8663L64.7795 46.0279L64.026 46.2126L63.2773 46.4204L62.5339 46.6512L61.7964 46.9051L61.0654 47.1822L60.3414 47.4823L59.6251 47.8054L58.9168 48.1517L58.2173 48.521L57.5271 48.9135L56.8467 49.329L56.1768 49.7676L55.5178 50.2293L54.8703 50.7141L54.2349 51.2219L53.6122 51.7528L53.0027 52.3069L52.407 52.884L51.8299 53.4797L51.2758 54.0892L50.7449 54.7119L50.237 55.3473L49.7523 55.9948L49.2906 56.6538L48.852 57.3238L48.4365 58.0041L48.044 58.6944L47.6747 59.3939L47.3284 60.1021L47.0052 60.8185L46.7051 61.5424L46.4281 62.2734L46.1742 63.0109L45.9434 63.7543L45.7356 64.503L45.5509 65.2565L45.3893 66.0142L45.2508 66.7756L45.1354 67.54L45.0431 68.307L44.9738 69.076L44.9276 69.8464L44.9046 70.6176L44.9046 71.3891L44.9276 72.1603L44.9738 72.9307L45.0431 73.6996L45.1354 74.4666L45.2508 75.2311L45.3893 75.9925L45.5509 76.7502L45.7356 77.5037L45.9434 78.2524L46.1742 78.9958L46.4281 79.7332L46.7051 80.4642L47.0052 81.1882L47.3284 81.9046L47.6747 82.6128L48.044 83.3123L48.4365 84.0025L48.852 84.6829L49.2906 85.3529L49.7523 86.0119L50.237 86.6593L50.7449 87.2947L51.2758 87.9174L51.8299 88.527L52.407 89.1227L85.7705 122.486L86.3377 121.286L87.1454 119.682L87.9955 118.095L88.8881 116.525L89.8232 114.973L90.8009 113.44L91.821 111.927L92.8837 110.434L93.9888 108.963L95.1365 107.513L96.3267 106.087L97.5593 104.685L98.8345 103.307L100.152 101.955M186.204 90.0083L187.405 90.6911L188.957 91.6262L190.49 92.6039L192.004 93.624L193.497 94.6867L194.968 95.7918L196.417 96.9395L197.843 98.1297L199.246 99.3623L200.623 100.637L201.975 101.955L251.36 151.339L252.677 152.691L253.953 154.069L255.185 155.471L256.375 156.898L257.523 158.347L258.628 159.818L259.691 161.311L260.711 162.825L261.689 164.358L262.624 165.91L263.516 167.48L264.367 169.067L265.174 170.67L265.939 172.289L266.662 173.923L267.342 175.571L267.98 177.231L268.575 178.904L269.127 180.588L269.637 182.282L270.105 183.986L270.53 185.699L270.912 187.42L271.253 189.148L271.55 190.883L271.805 192.622L272.018 194.367L272.188 196.115L272.315 197.866L272.4 199.619L272.443 201.374L272.443 203.128L272.4 204.883L272.315 206.636L272.188 208.387L272.018 210.135L271.805 211.88L271.55 213.619L271.253 215.354L270.912 217.082L270.53 218.803L270.105 220.516L269.637 222.22L269.127 223.914L268.575 225.598L267.98 227.271L267.342 228.932L266.662 230.579L265.939 232.213L265.174 233.832L264.367 235.435L263.516 237.023L262.624 238.593L261.689 240.145L260.711 241.678L259.691 243.191L258.628 244.684L257.523 246.155L256.375 247.605L255.185 249.031L253.953 250.433L252.677 251.811L251.36 253.163L250.008 254.48L248.63 255.756L247.228 256.988L245.802 258.178L244.352 259.326L242.881 260.431L241.388 261.494L239.875 262.514L238.342 263.492L236.79 264.427L235.22 265.319L233.632 266.17L232.029 266.977L230.41 267.742L228.776 268.465L227.129 269.145L225.468 269.783L223.795 270.378L222.111 270.93L220.417 271.44L218.713 271.908L217 272.333L215.279 272.715L213.551 273.056L211.816 273.353L210.077 273.608L208.332 273.821L206.584 273.991L204.833 274.118L203.08 274.203L201.325 274.246L199.571 274.246L197.816 274.203L196.063 274.118L194.312 273.991L192.564 273.821L190.819 273.608L189.08 273.353L187.345 273.056L185.617 272.715L183.896 272.333L182.183 271.908L180.479 271.44L178.785 270.93L177.101 270.378L175.428 269.783L173.768 269.145L172.12 268.465L170.486 267.742L168.867 266.977L167.264 266.17L165.677 265.319L164.107 264.427L162.555 263.492L161.022 262.514L159.508 261.494L158.015 260.431L156.544 259.326L155.095 258.178L153.668 256.988L152.266 255.756L150.889 254.48L149.537 253.163L100.152 203.778L98.8345 202.426L97.5593 201.049L96.3267 199.646L95.1365 198.22L93.9888 196.771L92.8837 195.3L91.821 193.807L90.8009 192.293L89.8232 190.76L88.8881 189.208L87.9955 187.638L87.1454 186.051L86.3377 184.447L86.2386 184.237L85.0375 183.555L83.4855 182.62L81.9524 181.642L80.439 180.622L78.9462 179.559L77.4747 178.454L76.0254 177.306L74.5992 176.116L73.1969 174.884L71.8193 173.608L70.4673 172.291L21.083 122.906L19.7653 121.554L18.4901 120.177L17.2575 118.774L16.0673 117.348L14.9196 115.899L13.8145 114.428L12.7518 112.935L11.7317 111.421L10.754 109.888L9.81889 108.336L8.92627 106.766L8.07615 105.179L7.26853 103.575L6.50342 101.956L5.78082 100.323L5.10072 98.6752L4.46313 97.0147L3.86805 95.342L3.31547 93.6579L2.8054 91.9635L2.33783 90.2593L1.91277 88.5464L1.53022 86.8255L1.19017 85.0974L0.892627 83.3631L0.637591 81.6233L0.42506 79.879L0.255036 78.1308L0.127518 76.3797L0.042506 74.6265L0 72.8721L1.13687e-13 71.1172L0.042506 69.3628L0.127518 67.6096L0.255036 65.8585L0.42506 64.1104L0.637591 62.366L0.892627 60.6262L1.19017 58.8919L1.53022 57.1639L1.91277 55.443L2.33783 53.73L2.8054 52.0259L3.31547 50.3314L3.86805 48.6474L4.46313 46.9747L5.10072 45.3141L5.78082 43.6666L6.50342 42.0329L7.26853 40.4139L8.07615 38.8103L8.92627 37.2231L9.81889 35.6532L10.754 34.1012L11.7317 32.5681L12.7518 31.0547L13.8145 29.5618L14.9196 28.0904L16.0673 26.6411L17.2575 25.2149L18.4901 23.8126L19.7653 22.435L21.083 21.083L22.435 19.7653L23.8126 18.4901L25.2149 17.2575L26.6411 16.0673L28.0904 14.9196L29.5618 13.8145L31.0547 12.7518L32.5681 11.7317L34.1012 10.754L35.6532 9.81889L37.2231 8.92627L38.8103 8.07615L40.4139 7.26853L42.0329 6.50342L43.6666 5.78082L45.3141 5.10072L46.9747 4.46313L48.6474 3.86805L50.3314 3.31547L52.0259 2.8054L53.73 2.33783L55.443 1.91277L57.1639 1.53022L58.8919 1.19017L60.6262 0.892627L62.366 0.637591L64.1104 0.42506L65.8585 0.255036L67.6096 0.127518L69.3628 0.042506L71.1172 0L72.8721 1.13687e-13L74.6265 0.042506L76.3797 0.127518L78.1308 0.255036L79.879 0.42506L81.6233 0.637591L83.3631 0.892627L85.0974 1.19017L86.8255 1.53022L88.5464 1.91277L90.2593 2.33783L91.9635 2.8054L93.6579 3.31547L95.342 3.86805L97.0147 4.46313L98.6752 5.10072L100.323 5.78082L101.956 6.50342L103.575 7.26853L105.179 8.07615L106.766 8.92627L108.336 9.81889L109.888 10.754L111.421 11.7317L112.935 12.7518L114.428 13.8145L115.899 14.9196L117.348 16.0673L118.774 17.2575L120.177 18.4901L121.554 19.7653L122.906 21.083L172.291 70.4673L173.608 71.8193L174.884 73.1969L176.116 74.5992L177.306 76.0254L178.454 77.4747L179.559 78.9462L180.622 80.439L181.642 81.9524L182.62 83.4855L183.555 85.0375L184.447 86.6075L185.298 88.1947L186.105 89.7982L186.204 90.0083M131.476 133.756L132.072 133.179L132.681 132.625L133.304 132.094L133.94 131.586L134.587 131.101L135.246 130.64L135.916 130.201L136.596 129.786L137.287 129.393L137.986 129.024L138.694 128.678L139.411 128.354L140.135 128.054L140.866 127.777L141.603 127.523L142.347 127.293L143.095 127.085L143.849 126.9L144.606 126.738L145.368 126.6L146.132 126.485L146.899 126.392L147.668 126.323L148.439 126.277L149.21 126.254L149.485 126.254L149.48 126.332L149.411 127.101L149.319 127.868L149.203 128.632L149.065 129.394L148.903 130.151L148.718 130.905L148.511 131.654L148.28 132.397L148.026 133.135L147.749 133.866L147.449 134.589L147.126 135.306L146.779 136.014L146.41 136.714L146.017 137.404L145.602 138.084L145.163 138.754L144.702 139.413L144.217 140.061L143.709 140.696L143.178 141.319L142.624 141.928L142.047 142.524L141.451 143.101L140.842 143.655L140.219 144.186L139.584 144.694L138.936 145.179L138.277 145.64L137.607 146.079L136.927 146.494L136.237 146.887L135.537 147.256L134.829 147.603L134.112 147.926L133.389 148.226L132.658 148.503L131.92 148.757L131.177 148.988L130.428 149.195L129.674 149.38L128.917 149.542L128.155 149.68L127.391 149.796L126.624 149.888L125.855 149.957L125.085 150.003L124.313 150.026L124.038 150.026L124.043 149.948L124.112 149.179L124.205 148.412L124.32 147.648L124.459 146.886L124.62 146.129L124.805 145.375L125.013 144.626L125.243 143.883L125.497 143.146L125.774 142.415L126.074 141.691L126.398 140.974L126.744 140.266L127.113 139.567L127.506 138.876L127.921 138.196L128.36 137.526L128.822 136.867L129.306 136.219L129.814 135.584L130.345 134.961L130.899 134.352L131.476 133.756M186.366 152.407L221.116 187.157L221.693 187.753L222.247 188.363L222.778 188.985L223.286 189.621L223.771 190.268L224.232 190.927L224.671 191.597L225.086 192.277L225.479 192.968L225.848 193.667L226.195 194.375L226.518 195.092L226.818 195.816L227.095 196.547L227.349 197.284L227.58 198.028L227.787 198.776L227.972 199.53L228.134 200.287L228.272 201.049L228.388 201.813L228.48 202.58L228.549 203.349L228.595 204.12L228.618 204.891L228.618 205.662L228.595 206.434L228.549 207.204L228.48 207.973L228.388 208.74L228.272 209.504L228.134 210.266L227.972 211.023L227.787 211.777L227.58 212.526L227.349 213.269L227.095 214.007L226.818 214.738L226.518 215.461L226.195 216.178L225.848 216.886L225.479 217.586L225.086 218.276L224.671 218.956L224.232 219.626L223.771 220.285L223.286 220.933L222.778 221.568L222.247 222.191L221.693 222.8L221.116 223.396L220.52 223.973L219.911 224.527L219.288 225.058L218.653 225.566L218.005 226.051L217.346 226.512L216.676 226.951L215.996 227.366L215.306 227.759L214.606 228.128L213.898 228.475L213.181 228.798L212.458 229.098L211.727 229.375L210.989 229.629L210.246 229.86L209.497 230.067L208.743 230.252L207.986 230.414L207.224 230.552L206.46 230.668L205.693 230.76L204.924 230.829L204.154 230.875L203.382 230.898L202.611 230.898L201.84 230.875L201.069 230.829L200.3 230.76L199.533 230.668L198.769 230.552L198.007 230.414L197.25 230.252L196.496 230.067L195.748 229.86L195.004 229.629L194.267 229.375L193.536 229.098L192.812 228.798L192.095 228.475L191.387 228.128L190.688 227.759L189.997 227.366L189.317 226.951L188.647 226.512L187.988 226.051L187.341 225.566L186.705 225.058L186.082 224.527L185.473 223.973L184.877 223.396L149.259 187.778L149.707 187.593L151.341 186.87L152.96 186.105L154.563 185.298L156.151 184.447L157.721 183.555L159.273 182.62L160.806 181.642L162.319 180.622L163.812 179.559L165.283 178.454L166.733 177.306L168.159 176.116L169.561 174.884L170.939 173.608L172.291 172.291L173.608 170.939L174.884 169.561L176.116 168.159L177.306 166.733L178.454 165.283L179.559 163.812L180.622 162.319L181.642 160.806L182.62 159.273L183.555 157.721L184.447 156.151L185.298 154.563L186.105 152.96L186.366 152.407" sodipodi:nodetypes="ccccccccccccccccccccccccccccccccccccccccccccccccccccccccccccccccccccccccccccccccccccccccccccccccccccccccccccccccccccccccccccccccccccccccccccccccccccccccccccccccccccccccccccccccccccccccccccccccccccccccccccccccccccccccccccccccccccccccccccccccccccccccccccccccccccccccccccccccccccccccccccccccccccccccccccccccccccccccccccccccccccccccccccccccccccccccccccccccccccccccccccccccccccccccccccccccccccccccccccccccccccccccccccccccccccccccccccccccccccccccccccccccccccccccccccccccccccccccccccccccccccccccccccccccccccccccccccccccccccccccccccccccccccccccccccccccccccccccccccccccccccccccccccccccccccccccccccccccccccccccccccccccccccccccccccccccccccccccccccccccccccccccccccccccccccccccccccccccccccc"/><path id="shape11" transform="matrix(1.70357547150197 0 0 1.70357547150197 244.852743811153 258.584185576776)" fill="#ffffff" fill-rule="evenodd" stroke="#f0c921" stroke-width="27.36" stroke-linecap="round" stroke-linejoin="bevel" d="M100.685 71.2572L82.1496 52.6785L81.5575 52.1037L80.9518 51.5517L80.333 51.0229L79.7015 50.5171L79.0581 50.0341L78.4032 49.5742L77.7374 49.1373L77.0613 48.7235L76.3754 48.3325L75.6802 47.9646L74.9764 47.6197L74.2645 47.2978L73.545 46.9989L72.8186 46.7229L72.0857 46.4699L71.347 46.24L70.603 46.033L69.8541 45.8491L69.1011 45.6881L68.3445 45.5501L67.5848 45.4352L66.8226 45.3432L66.0583 45.2742L65.2928 45.2283L64.5264 45.2053L64.0329 45.2053M37.2296 5.85639M37.2296 5.85639L37.4507 5.75836L39.0879 5.0809L40.7382 4.44579L42.4004 3.85302L44.074 3.30259L45.7579 2.7945L47.4514 2.32875L49.1537 1.90534L50.8639 1.52427L52.5811 1.18555L54.3046 0.889159L56.0336 0.635114L57.7671 0.423408L59.5043 0.254045L61.2445 0.127023L62.9868 0.0423408L64.7303 0L66.4742 1.69868e-13L68.2177 0.0423408L69.96 0.127023L71.7002 0.254045L73.4375 0.423408L75.1709 0.635114L76.8999 0.889159L78.6234 1.18555L80.3407 1.52427L82.0509 1.90534L83.7531 2.32875L85.4467 2.7945L87.1305 3.30259L88.8042 3.85302L90.4664 4.44579L92.1166 5.0809L100.774 9.47216M63.8088 106.49L62.6171 106.984L60.9664 107.619L59.3039 108.212L57.6304 108.762L55.9469 109.27L54.2535 109.736L52.5512 110.159L50.8409 110.54L49.1237 110.879L47.3995 111.175L45.6713 111.429L43.9372 111.641L42.2001 111.811L40.46 111.937L38.7179 112.022L36.9739 112.065L35.2308 112.065L33.4867 112.022L31.7446 111.937L30.0045 111.811L28.2674 111.641L26.5333 111.429L24.8051 111.175L23.0809 110.879L21.3637 110.54L19.6534 110.159L17.9511 109.736L14.5574 109.213L6.09183 106.141L3.39484 104.943L0.0985139 103.219M0 42.3362L20.6283 61.4123L21.2206 61.987L21.8258 62.5389L22.4449 63.0678L23.077 63.5738L23.7199 64.0569L24.3748 64.5162L25.0407 64.9535L25.7164 65.3668L26.4031 65.7583L27.0978 66.1259L27.8014 66.4715L28.5139 66.7933L29.2334 67.0921L29.9598 67.368L30.6922 67.621L31.4316 67.8511L32.1749 68.0573L32.9242 68.2416L33.6765 68.403L34.4338 68.5405L35.193 68.656L35.9552 68.7477L36.7194 68.8164L37.4856 68.8622L38.2518 68.8851L42.5167 68.9533M63.8088 106.49" sodipodi:nodetypes="ccccccccccccccccccccccccccccccccccccccccccccccccccccccccccccccccccccccccccccccccccccccccccccccccccccccccccccccccccccccccccccc"/>
</svg>
